HIERARCHY
ROOT pelvis
{
	OFFSET 0.00 0.00 0.00
	CHANNELS 6 Xposition Yposition Zposition Xrotation Yrotation Zrotation
	JOINT lfemur
	{
		OFFSET 0.00000 4.00987 0.00000
		CHANNELS 3 Xrotation Yrotation Zrotation
		JOINT ltibia
		{
			OFFSET 0.00000 0.00000 -16.96567
			CHANNELS 3 Xrotation Yrotation Zrotation
			JOINT lfoot
			{
				OFFSET 0.00000 0.00000 -15.14977
				CHANNELS 3 Xrotation Yrotation Zrotation
				JOINT ltoes
				{
					OFFSET 4.80706 0.00000 -0.34192
					CHANNELS 3 Xrotation Yrotation Zrotation
				}
			}
		}
	}
	JOINT rfemur
	{
		OFFSET 0.00000 -4.00987 0.00000
		CHANNELS 3 Xrotation Yrotation Zrotation
		JOINT rtibia
		{
			OFFSET 0.00000 0.00000 -17.37260
			CHANNELS 3 Xrotation Yrotation Zrotation
			JOINT rfoot
			{
				OFFSET 0.00000 0.00000 -14.74017
				CHANNELS 3 Xrotation Yrotation Zrotation
				JOINT rtoes
				{
					OFFSET 4.34786 0.00000 -1.10103
					CHANNELS 3 Xrotation Yrotation Zrotation
				}
			}
		}
	}
	JOINT lowerback
	{
		OFFSET -1.96850 0.00000 4.19271
		CHANNELS 3 Xrotation Yrotation Zrotation
		JOINT upperback
		{
			OFFSET 0.46383 0.00000 7.28365
			CHANNELS 3 Xrotation Yrotation Zrotation
			JOINT lclavicle
			{
				OFFSET 0.00000 0.00000 8.84290
				CHANNELS 3 Xrotation Yrotation Zrotation
				JOINT lhumerus
				{
					OFFSET 0.00000 5.32652 -2.91730
					CHANNELS 3 Xrotation Yrotation Zrotation
					JOINT lradius
					{
						OFFSET 0.00000 0.00000 -11.04679
						CHANNELS 3 Xrotation Yrotation Zrotation
						JOINT lhand
						{
							OFFSET 0.00000 0.00000 -7.95329
							CHANNELS 3 Xrotation Yrotation Zrotation
						}
					}
				}
			}
			JOINT rclavicle
			{
				OFFSET 0.00000 0.00000 8.84290
				CHANNELS 3 Xrotation Yrotation Zrotation
				JOINT rhumerus
				{
					OFFSET 0.00000 -5.91097 -2.78771
					CHANNELS 3 Xrotation Yrotation Zrotation
					JOINT rradius
					{
						OFFSET 0.00000 0.00000 -11.28954
						CHANNELS 3 Xrotation Yrotation Zrotation
						JOINT rhand
						{
							OFFSET 0.00000 0.00000 -7.95361
							CHANNELS 3 Xrotation Yrotation Zrotation
						}
					}
				}
			}
			JOINT LowerNeck
			{
				OFFSET 0.00000 0.00000 8.84290
				CHANNELS 3 Xrotation Yrotation Zrotation
				JOINT Neck
				{
					OFFSET -0.14998 -1.07471 3.07123
					CHANNELS 3 Xrotation Yrotation Zrotation
				}
			}
		}
	}
}
MOTION
Frames: 9
Frame Time: 0.008342
 -2.7398 -23.2503 33.6420 5.1432 3.1190 89.2195 -10.0701 15.3496 -11.6171 0.0000 12.0248 19.5466 0.6267 -11.1436 2.4166 0.0000 -15.1384 0.0000 -1.8449 -21.0139 11.1121 0.0000 2.9716 -27.7050 2.1947 5.6239 7.9677 -0.0000 -3.7802 -0.0000 -6.4539 -4.4693 -1.9018 2.0189 30.3906 -2.0674 0.9567 0.0000 -2.2291 24.4545 -30.1230 -8.4350 -0.0000 -27.1498 -7.3904 4.8826 1.8815 0.0000 3.0768 -0.0000 4.6250 -16.9828 -16.4601 9.9364 -0.0000 -20.9261 11.3768 -6.1235 1.3630 0.0000 3.8339 -3.6262 4.1494 -4.3913 -39.8423 -10.7103
 -2.7121 -22.8549 33.5747 5.0007 3.0132 89.2894 -9.9514 15.6231 -11.2795 0.0000 12.6307 19.0671 0.6713 -11.5131 2.5898 0.0000 -15.5192 -0.0000 -1.7802 -21.0897 8.1621 0.0000 1.6184 -27.7473 2.5884 4.2723 9.4927 0.0000 -4.0545 -0.0000 -6.4050 -4.4936 -1.9702 2.1887 30.3515 -2.2675 0.9644 -0.0000 -2.1792 24.3310 -30.0101 -8.6569 0.0000 -27.4491 -7.2891 4.8914 1.7620 0.0000 3.1939 -0.0000 4.6357 -17.0768 -16.3411 9.7861 -0.0000 -21.0818 11.3643 -6.2281 1.1702 -0.0000 3.9146 -3.5953 4.1438 -4.4696 -40.2199 -10.6166
 -2.6781 -22.4531 33.5079 4.8618 2.8555 89.3987 -9.7425 15.8451 -10.7677 -0.0000 13.3728 18.3136 0.7337 -11.8735 2.8318 0.0000 -15.9207 0.0000 -1.6286 -21.0171 6.4500 0.0000 0.3515 -28.3673 2.9042 3.3409 10.7256 0.0000 -5.3778 0.0000 -6.2970 -4.4994 -2.0497 2.3397 30.2746 -2.5100 1.0405 -0.0000 -2.0481 24.0638 -29.8986 -8.9686 -0.0000 -27.6474 -7.2050 5.1025 1.6771 -0.0000 3.3217 0.0000 4.7520 -17.1786 -16.1219 9.5087 0.0000 -21.2694 11.2913 -6.0661 1.1583 -0.0000 3.9921 -3.5732 4.1475 -4.4288 -40.5097 -10.4413
 -2.6561 -22.0595 33.4461 4.6655 2.8638 89.5155 -9.7558 16.0296 -10.8815 -0.0000 14.0224 18.0338 0.8227 -11.9929 3.1759 0.0000 -16.4196 0.0000 -1.6649 -21.0119 5.6287 0.0000 -0.4730 -29.2916 3.1950 2.4398 11.8770 0.0000 -5.6211 0.0000 -6.3467 -4.5332 -2.1634 2.4781 30.1942 -2.6626 1.1264 -0.0000 -2.0280 23.7648 -29.7747 -9.1987 -0.0000 -27.7145 -7.2236 5.2044 1.5597 0.0000 3.5314 -0.0000 4.7003 -17.3943 -15.9834 9.4713 0.0000 -21.5544 11.1565 -5.8477 1.2779 -0.0000 4.1050 -3.5567 4.1713 -4.6622 -40.8988 -10.4629
 -2.6291 -21.6617 33.3916 4.4752 2.7676 89.5949 -9.6559 16.2216 -10.9368 0.0000 14.6948 17.7634 0.8888 -11.9591 3.4312 0.0000 -17.0387 -0.0000 -1.5739 -21.0609 5.4170 0.0000 -0.7014 -29.8751 3.4250 1.9979 12.7789 0.0000 -6.8312 -0.0000 -6.2919 -4.5907 -2.2151 2.6957 30.1649 -2.8794 1.1652 0.0000 -2.0255 23.4229 -29.6524 -9.4070 0.0000 -27.6551 -7.4294 5.4411 1.3406 0.0000 3.6805 -0.0000 4.8103 -17.6200 -15.7878 9.1398 0.0000 -21.7657 11.2884 -5.6283 1.2528 -0.0000 4.1416 -3.6100 4.1024 -4.7785 -41.2292 -10.3352
 -2.5834 -21.2609 33.3449 4.3416 2.4108 89.6318 -9.2691 16.3555 -10.6923 -0.0000 15.6133 17.0923 1.0058 -12.1464 3.8843 0.0000 -17.6611 -0.0000 -1.1222 -21.1889 4.8747 0.0000 -0.1783 -29.0884 3.5070 2.0909 13.0845 0.0000 -7.0033 0.0000 -5.9059 -4.5531 -2.2594 2.7900 30.0983 -3.0593 1.1666 0.0000 -1.9503 23.1060 -29.5808 -9.4917 0.0000 -27.4814 -7.5398 5.4056 1.3225 0.0000 3.8708 -0.0000 4.8645 -17.8183 -15.6607 8.8215 -0.0000 -21.9095 11.4216 -5.4310 1.2038 -0.0000 4.0436 -3.8067 4.1097 -4.6429 -41.3866 -10.2062
 -2.5282 -20.8595 33.3117 4.2546 1.8561 89.6910 -8.6073 16.4348 -10.1408 0.0000 16.7293 16.6952 0.9319 -12.1613 3.5985 0.0000 -18.4636 -0.0000 -0.4205 -21.0682 6.1115 0.0000 0.3782 -28.8109 3.1817 2.8003 11.8035 -0.0000 -6.7660 -0.0000 -5.3183 -4.4207 -2.3323 2.9225 30.0067 -3.1433 1.0966 0.0000 -2.0320 22.8645 -29.4474 -9.6212 0.0000 -27.2433 -7.4901 5.2544 1.1901 -0.0000 4.0341 -0.0000 4.7955 -18.0472 -15.6089 8.7386 -0.0000 -21.9365 11.3068 -5.4947 1.1072 0.0000 4.1912 -3.9175 3.9968 -5.0196 -41.7381 -10.1749
 -2.4862 -20.4433 33.2793 4.1701 1.6471 89.6934 -8.4091 16.7000 -10.3452 0.0000 17.4912 16.2266 1.1002 -11.8339 4.2480 0.0000 -18.5456 -0.0000 -0.0199 -21.1725 6.7042 0.0000 1.4952 -29.2164 3.0541 3.6841 11.2650 0.0000 -6.9642 -0.0000 -5.1280 -4.4031 -2.3196 3.1047 30.0052 -3.3365 1.2281 0.0000 -1.9733 22.2927 -29.3619 -9.6875 0.0000 -26.8836 -7.6580 5.2672 1.0811 0.0000 4.1771 0.0000 4.7960 -18.2387 -15.5299 8.5623 -0.0000 -22.0369 11.3091 -5.3351 1.2025 -0.0000 4.1124 -3.9708 3.9783 -4.9683 -42.1323 -10.0406
 -2.4359 -20.0150 33.2534 4.1132 1.2236 89.7738 -7.9191 16.9094 -10.2922 0.0000 18.4404 16.0424 1.0846 -11.3067 4.1856 0.0000 -19.9279 -0.0000 0.6109 -20.9887 8.5059 0.0000 2.1270 -30.6339 2.8774 4.8022 10.5322 0.0000 -6.5760 -0.0000 -4.6664 -4.3557 -2.4510 3.1743 29.9659 -3.3662 1.3008 -0.0000 -2.0402 21.8393 -29.1273 -9.9581 0.0000 -26.5334 -8.1617 5.0091 1.2282 0.0000 4.2649 0.0000 4.7025 -18.3284 -15.4855 8.5107 -0.0000 -21.9422 11.2958 -5.3822 1.1632 0.0000 4.1197 -3.8521 3.7735 -4.9652 -42.6850 -9.7207
